<svg xmlns:xlink="http://www.w3.org/1999/xlink" xmlns="http://www.w3.org/2000/svg" viewBox="0 0 330 330" height="300" width="300"><g class="tmc-donutgroup"><path fill="#00ffff" d="M 165 15
    A 150 150 0 0 1 315 165
    L 240 165
    A 75 75 0 0 0 165 90
    L 165 15
    Z"></path><path fill="#ff00ff" d="M 315 165
    A 150 150 0 0 1 165 315
    L 165 240
    A 75 75 0 0 0 240 165
    L 315 165
    Z"></path><path fill="#ffff00" d="M 165 315
    A 150 150 0 0 1 15 165.00000000000003
    L 90 165
    A 75 75 0 0 0 165 240
    L 165 315
    Z"></path><path fill="#d4453a" d="M 15 165.00000000000003
    A 150 150 0 0 1 165 15
    L 165 90
    A 75 75 0 0 0 90 165
    L 15 165.00000000000003
    Z"></path></g></svg>