<svg xmlns:xlink="http://www.w3.org/1999/xlink" xmlns="http://www.w3.org/2000/svg" viewBox="0 0 330 330" height="300" width="300"><g class="tmc-donutgroup"><path fill="#00ffff" d="M 165 15
    A 150 150 0 0 1 253.16778784387097 286.3525491562421
    L 209.0838939219355 225.67627457812105
    A 75 75 0 0 0 165 90
    L 165 15
    Z"></path><path fill="#ff00ff" d="M 253.16778784387097 286.3525491562421
    A 150 150 0 0 1 165 315
    L 165 240
    A 75 75 0 0 0 209.0838939219355 225.67627457812105
    L 253.16778784387097 286.3525491562421
    Z"></path><path fill="#ffff00" d="M 165 315
    A 150 150 0 0 1 22.341522555726954 118.64745084375791
    L 93.67076127786348 141.82372542187895
    A 75 75 0 0 0 165 240
    L 165 315
    Z"></path><path fill="#d4453a" d="M 22.341522555726954 118.64745084375791
    A 150 150 0 0 1 55.654705886788264 62.3179341106967
    L 110.32735294339413 113.65896705534834
    A 75 75 0 0 0 93.67076127786348 141.82372542187895
    L 22.341522555726954 118.64745084375791
    Z"></path><path fill="#3e9503" d="M 55.654705886788264 62.3179341106967
    A 150 150 0 0 1 165 15
    L 165 90
    A 75 75 0 0 0 110.32735294339413 113.65896705534834
    L 55.654705886788264 62.3179341106967
    Z"></path></g></svg>