<svg xmlns:xlink="http://www.w3.org/1999/xlink" xmlns="http://www.w3.org/2000/svg" viewBox="0 0 80 80" height="50" width="50"><g class="tmc-donutgroup"><path fill="#00ffff" d="M 40 15
    A 25 25 0 0 1 61.65063509461097 52.5
    L 50.82531754730549 46.25
    A 12.5 12.5 0 0 0 40 27.5
    L 40 15
    Z"></path><path fill="#ff00ff" d="M 61.65063509461097 52.5
    A 25 25 0 0 1 18.349364905389038 52.50000000000001
    L 29.17468245269452 46.25
    A 12.5 12.5 0 0 0 50.82531754730549 46.25
    L 61.65063509461097 52.5
    Z"></path><path fill="#ffff00" d="M 18.349364905389038 52.50000000000001
    A 25 25 0 0 1 40 15
    L 40 27.5
    A 12.5 12.5 0 0 0 29.17468245269452 46.25
    L 18.349364905389038 52.50000000000001
    Z"></path></g></svg>