<svg xmlns:xlink="http://www.w3.org/1999/xlink" xmlns="http://www.w3.org/2000/svg" viewBox="0 0 400 400" height="300" width="300"><g class="tmc-donutgroup"><path fill="#00ffff" d="M 200 50
    A 150 150 0 0 1 329.9038105676658 275
    L 264.9519052838329 237.5
    A 75 75 0 0 0 200 125
    L 200 50
    Z"></path><path fill="#ff00ff" d="M 329.9038105676658 275
    A 150 150 0 0 1 70.09618943233423 275.00000000000006
    L 135.0480947161671 237.50000000000003
    A 75 75 0 0 0 264.9519052838329 237.5
    L 329.9038105676658 275
    Z"></path><path fill="#ffff00" d="M 70.09618943233423 275.00000000000006
    A 150 150 0 0 1 200 50
    L 200 125
    A 75 75 0 0 0 135.0480947161671 237.50000000000003
    L 70.09618943233423 275.00000000000006
    Z"></path></g></svg>