<svg xmlns:xlink="http://www.w3.org/1999/xlink" xmlns="http://www.w3.org/2000/svg" viewBox="0 0 330 330" height="300" width="300"><defs><linearGradient gradientTransform="rotate(180,0.5,0.5)" id="QsHPu56d"><stop stop-color="#ff00ff" offset="0%"></stop><stop stop-color="#00ffff" offset="100%"></stop></linearGradient><mask id="6wmGxnEA"><rect fill="#000000" height="100%" width="100%" y="0" x="0"></rect><path stroke="#ffffff" fill="#ffffff" d="M 165 15
    A 150 150 0 0 1 294.9038105676658 239.99999999999997
    L 165 165 Z"></path><path stroke="#ffffff" fill="#ffffff" d="M 294.9038105676658 239.99999999999997
    A 150 150 0 0 1 35.09618943233423 240.00000000000006
    L 165 165 Z"></path><path stroke="#ffffff" fill="#ffffff" d="M 35.09618943233423 240.00000000000006
    A 150 150 0 0 1 165 15
    L 165 165 Z"></path></mask></defs><rect mask="url('#6wmGxnEA')" fill="url('#QsHPu56d')" height="100%" width="100%" y="0" x="0"></rect><g class="tmc-piegroup"><path stroke="#ffffff" fill="transparent" d="M 165 15
    A 150 150 0 0 1 294.9038105676658 239.99999999999997
    L 165 165 Z"></path><path stroke="#ffffff" fill="transparent" d="M 294.9038105676658 239.99999999999997
    A 150 150 0 0 1 35.09618943233423 240.00000000000006
    L 165 165 Z"></path><path stroke="#ffffff" fill="transparent" d="M 35.09618943233423 240.00000000000006
    A 150 150 0 0 1 165 15
    L 165 165 Z"></path></g></svg>